<svg width="25" height="25" viewBox="0 0 25 25" fill="none" xmlns="http://www.w3.org/2000/svg">
  <path d="M12.8802 12.6104C13.4302 12.6104 13.9012 12.4144 14.2932 12.0224C14.6852 11.6304 14.8809 11.1597 14.8802 10.6104C14.8802 10.0604 14.6842 9.58935 14.2922 9.19735C13.9002 8.80535 13.4295 8.60968 12.8802 8.61035C12.3302 8.61035 11.8592 8.80635 11.4672 9.19835C11.0752 9.59035 10.8796 10.061 10.8802 10.6104C10.8802 11.1604 11.0762 11.6314 11.4682 12.0234C11.8602 12.4154 12.3309 12.6111 12.8802 12.6104ZM12.8802 19.9604C14.9135 18.0937 16.4219 16.3977 17.4052 14.8724C18.3885 13.3471 18.8802 11.9931 18.8802 10.8104C18.8802 8.99368 18.3009 7.50635 17.1422 6.34835C15.9835 5.19035 14.5629 4.61102 12.8802 4.61035C11.1969 4.61035 9.77592 5.18968 8.61725 6.34835C7.45858 7.50702 6.87958 8.99435 6.88025 10.8104C6.88025 11.9937 7.37192 13.3481 8.35525 14.8734C9.33858 16.3987 10.8469 18.0944 12.8802 19.9604ZM12.8802 22.6104C10.1969 20.3271 8.19292 18.2064 6.86825 16.2484C5.54358 14.2904 4.88092 12.4777 4.88025 10.8104C4.88025 8.31035 5.68458 6.31868 7.29325 4.83535C8.90192 3.35202 10.7642 2.61035 12.8802 2.61035C14.9969 2.61035 16.8595 3.35202 18.4682 4.83535C20.0769 6.31868 20.8809 8.31035 20.8802 10.8104C20.8802 12.4771 20.2175 14.2897 18.8922 16.2484C17.5669 18.2071 15.5629 20.3277 12.8802 22.6104Z" fill="#64748B" />
</svg>