<svg width="31" height="31" viewBox="0 0 31 31" fill="none" xmlns="http://www.w3.org/2000/svg">
  <g clip-path="url(#clip0_1_4061)">
    <path d="M30.8798 15.406C30.8798 15.4004 30.8795 15.3947 30.8795 15.3891C30.8712 15.0132 30.5693 14.7136 30.1888 14.7136H30.0075L27.2069 9.29908C27.0888 9.07045 26.8531 8.92809 26.593 8.92802L21.8116 8.92703L21.994 7.48112C22.0461 6.9033 21.8674 6.35771 21.4909 5.94476C21.1151 5.53266 20.5904 5.30566 20.0133 5.30566H5.17372C4.8006 5.30566 4.48365 5.59436 4.44808 5.96656L4.29932 7.15785H12.7542C13.3032 7.15785 13.7366 7.60289 13.7223 8.15189C13.7078 8.70088 13.2512 9.14593 12.7022 9.14593H9.882C9.88249 9.14735 9.88299 9.14877 9.88349 9.15012H1.60185C1.21361 9.15012 0.890617 9.4648 0.880464 9.85304C0.87031 10.2413 1.17676 10.556 1.565 10.556H12.529C13.0379 10.6344 13.4182 11.0745 13.4042 11.6074C13.3888 12.1926 12.9044 12.6671 12.3202 12.672H4.76134C4.36919 12.672 4.043 12.9899 4.03271 13.382C4.02241 13.7742 4.33199 14.0921 4.72413 14.0921H12.1939C12.7103 14.164 13.0981 14.6077 13.0841 15.1457C13.0687 15.7339 12.5793 16.2108 11.9911 16.2108H3.42159V16.2116H2.70155C2.3094 16.2116 1.98321 16.5294 1.97291 16.9216C1.96262 17.3137 2.27212 17.6316 2.66434 17.6316H3.28576L3.04271 20.1748C2.9906 20.7526 3.16924 21.2981 3.54584 21.7111C3.92159 22.1233 4.44637 22.3502 5.02341 22.3502H5.55948C5.81495 23.811 7.0788 24.9147 8.62475 24.9147C10.1707 24.9147 11.4923 23.811 11.8241 22.3503H18.514C19.0549 22.3503 19.5669 22.1434 19.9685 21.8048C20.3358 22.1573 20.8225 22.3503 21.3541 22.3503H21.4641C21.7195 23.811 22.9834 24.9147 24.5294 24.9147C26.0753 24.9147 27.397 23.811 27.7288 22.3503H28.1704C29.3207 22.3503 30.3408 21.4151 30.4445 20.2656L30.8772 15.4725C30.8778 15.466 30.8775 15.4596 30.8779 15.4531C30.8786 15.4432 30.88 15.4336 30.8803 15.4236C30.8804 15.4177 30.8798 15.4119 30.8798 15.406ZM8.66195 23.4947C7.68318 23.4947 6.90769 22.6985 6.93332 21.7197C6.95895 20.7408 7.77612 19.9445 8.7549 19.9445C9.73367 19.9445 10.5091 20.7408 10.4835 21.7197C10.4578 22.6985 9.64073 23.4947 8.66195 23.4947ZM24.5666 23.4947C23.5878 23.4947 22.8124 22.6985 22.838 21.7197C22.8636 20.7408 23.6808 19.9445 24.6595 19.9445C25.6383 19.9445 26.4138 20.7408 26.3881 21.7197C26.3625 22.6985 25.5454 23.4947 24.5666 23.4947ZM29.0298 20.1748C28.9929 20.5843 28.6164 20.9302 28.2076 20.9302H27.73C27.4137 19.549 26.1861 18.5245 24.6967 18.5245C23.2073 18.5245 21.926 19.549 21.5375 20.9302H21.3913C21.2108 20.9302 21.0498 20.8625 20.9376 20.7396C20.8248 20.6159 20.7717 20.4475 20.7881 20.2655L21.6834 10.3471L23.7396 10.3475L23.4137 13.9581C23.3615 14.5359 23.54 15.0815 23.9166 15.4944C24.2923 15.9067 24.8172 16.1337 25.3944 16.1337H29.3945L29.0298 20.1748Z" fill="black" />
  </g>
  <defs>
    <clipPath id="clip0_1_4061">
      <rect width="30" height="30" fill="white" transform="translate(0.880249 0.110352)" />
    </clipPath>
  </defs>
</svg>