<svg width="25" height="25" viewBox="0 0 25 25" fill="none" xmlns="http://www.w3.org/2000/svg">
  <g clip-path="url(#clip0_1_4038)">
    <path d="M23.428 10.1494H18.6736C18.4324 10.1494 18.2374 10.3444 18.2374 10.5856C18.2374 10.8269 18.4324 11.0219 18.6736 11.0219H22.6441L23.9088 22.8H1.86962L3.3541 11.0219H7.33164C7.57287 11.0219 7.76787 10.8269 7.76787 10.5856C7.76787 10.3444 7.57287 10.1494 7.33164 10.1494H2.58459L0.880249 23.6725H24.8802L23.428 10.1494Z" fill="black" />
    <path d="M12.5075 17.1097C12.4434 17.1477 12.3749 17.1813 12.3134 17.221C12.2174 17.2829 12.1236 17.3479 12.0316 17.4151C11.8374 17.5577 11.7956 17.8308 11.9378 18.0249C12.0233 18.1414 12.1559 18.2029 12.2902 18.2029C12.3797 18.2029 12.47 18.1754 12.5481 18.1187C12.6257 18.0616 12.7047 18.0066 12.7871 17.9534C12.9271 17.8626 13.0759 17.7776 13.2294 17.6999C13.4336 17.5965 13.5165 17.3549 13.431 17.1464C13.4345 17.1429 13.4388 17.1403 13.4419 17.1368C14.231 16.3009 16.8903 13.1688 17.9913 7.95065C18.2147 6.89236 18.2648 5.87682 18.1405 4.93239C17.7654 2.06418 15.9834 0.547852 12.9873 0.547852C9.99219 0.547852 8.21019 2.06418 7.83417 4.93239C7.71028 5.87726 7.76044 6.8928 7.98379 7.95065C9.07393 13.1182 11.6913 16.2381 12.5075 17.1097ZM8.69921 5.04624C9.01896 2.60685 10.4219 1.42075 12.9878 1.42075C15.5541 1.42075 16.9566 2.60685 17.2759 5.04624C17.3871 5.89253 17.3405 6.80992 17.1381 7.77136C16.1483 12.4621 13.7883 15.4385 12.9878 16.3415C12.1864 15.4377 9.82686 12.46 8.83749 7.77136C8.63465 6.80992 8.58841 5.89296 8.69921 5.04624Z" fill="black" />
    <path d="M12.9878 8.80263C14.7549 8.80263 16.1923 7.36526 16.1923 5.59809C16.1923 3.83093 14.7549 2.39355 12.9878 2.39355C11.2206 2.39355 9.78325 3.83093 9.78325 5.59809C9.78325 7.36526 11.2206 8.80263 12.9878 8.80263ZM12.9878 3.26645C14.2734 3.26645 15.3199 4.31253 15.3199 5.59853C15.3199 6.88453 14.2738 7.93061 12.9878 7.93061C11.7018 7.93061 10.6557 6.88453 10.6557 5.59853C10.6557 4.31253 11.7022 3.26645 12.9878 3.26645Z" fill="black" />
    <path d="M14.59 16.3257C14.3545 16.3754 14.2044 16.6075 14.2546 16.8435C14.2982 17.0485 14.4792 17.1885 14.6808 17.1885C14.7109 17.1885 14.7419 17.1855 14.7724 17.1789C15.028 17.1249 15.305 17.0791 15.5951 17.0424C15.8342 17.0132 16.0043 16.7951 15.9742 16.556C15.9445 16.3165 15.7286 16.1438 15.4878 16.1769C15.1724 16.2158 14.8701 16.2659 14.59 16.3257Z" fill="black" />
    <path d="M16.8458 16.5021C16.8554 16.7364 17.0491 16.9196 17.2811 16.9196C17.2877 16.9196 17.2938 16.9196 17.3003 16.9192L18.1732 16.883C18.4136 16.8721 18.6003 16.6679 18.589 16.4275C18.5781 16.1863 18.3538 15.9983 18.1335 16.0114L17.2628 16.0476C17.022 16.0576 16.8353 16.2609 16.8458 16.5021Z" fill="black" />
    <path d="M10.6662 18.5095C10.442 18.6787 10.2103 18.8414 9.97693 18.9924C9.77496 19.1237 9.71737 19.3937 9.84868 19.5961C9.932 19.7248 10.0725 19.7946 10.2151 19.7946C10.2967 19.7946 10.3787 19.7719 10.4524 19.7244C10.7024 19.5621 10.9515 19.3876 11.1918 19.2061C11.3838 19.0609 11.4222 18.7873 11.2773 18.595C11.1321 18.4043 10.8594 18.3642 10.6662 18.5095Z" fill="black" />
    <path d="M20.3884 15.6333C20.241 15.7367 20.0494 15.8117 19.8012 15.8627C19.5652 15.9111 19.4134 16.1424 19.4623 16.3784C19.505 16.5847 19.6865 16.7265 19.8894 16.7265C19.9186 16.7265 19.9482 16.7234 19.9779 16.7173C20.3452 16.6414 20.6436 16.5201 20.8922 16.3452L20.9507 16.3024C21.1426 16.1567 21.1806 15.8832 21.0353 15.6913C20.8896 15.4993 20.6165 15.4618 20.4242 15.6067L20.3884 15.6333Z" fill="black" />
    <path d="M4.74523 19.044C4.80848 18.8115 4.67063 18.572 4.43812 18.5092C4.20736 18.4442 3.96612 18.5829 3.90331 18.8163C3.84834 19.0187 3.81563 19.2255 3.80516 19.4292C3.80297 19.4794 3.80167 19.53 3.80167 19.5832C3.8021 19.6687 3.80603 19.7542 3.81432 19.8393C3.83744 20.0639 4.02676 20.231 4.24793 20.231C4.26232 20.231 4.27716 20.2301 4.29286 20.2288C4.53235 20.2039 4.70684 19.9902 4.68285 19.7503C4.67674 19.6931 4.67456 19.6351 4.67412 19.5801C4.67412 19.5439 4.67543 19.5077 4.67718 19.4719C4.68416 19.3306 4.70684 19.1862 4.74523 19.044Z" fill="black" />
    <path d="M20.3788 12.2424C20.0324 12.1961 19.6791 12.2245 19.338 12.3213C19.1059 12.3863 18.9711 12.6276 19.037 12.8592C19.0911 13.0516 19.266 13.1772 19.4562 13.1772C19.4959 13.1772 19.5356 13.172 19.5748 13.1606C19.8017 13.097 20.0351 13.0769 20.2619 13.1074C20.5071 13.138 20.7208 12.9718 20.7527 12.7336C20.7849 12.4941 20.6174 12.2747 20.3788 12.2424Z" fill="black" />
    <path d="M21.2469 14.4038C21.1758 14.6337 21.3049 14.8784 21.5348 14.9491C21.578 14.9626 21.6207 14.9687 21.6635 14.9687C21.8502 14.9687 22.0225 14.8488 22.0801 14.6612C22.1233 14.5225 22.1499 14.3816 22.1599 14.2411C22.1621 14.2049 22.1634 14.1683 22.1634 14.132C22.1634 13.9279 22.1259 13.7233 22.0522 13.5248C21.9684 13.2984 21.7158 13.1841 21.4916 13.2674C21.2652 13.3512 21.1505 13.6025 21.2342 13.828C21.2718 13.9292 21.291 14.0317 21.291 14.1316L21.2896 14.1827C21.2844 14.2551 21.2705 14.3275 21.2469 14.4038Z" fill="black" />
    <path d="M8.50596 19.8121C8.25033 19.9321 7.9899 20.0433 7.73209 20.1432C7.50743 20.2296 7.39575 20.4822 7.48256 20.7073C7.54931 20.88 7.7142 20.9865 7.88957 20.9865C7.94191 20.9865 7.99513 20.9773 8.04661 20.9572C8.32361 20.8504 8.6028 20.7308 8.87675 20.6026C9.09487 20.5005 9.18866 20.2405 9.08614 20.0224C8.9845 19.8039 8.72538 19.7092 8.50596 19.8121Z" fill="black" />
    <path d="M5.33023 17.997C5.40046 17.997 5.472 17.98 5.53874 17.9438C5.66438 17.8753 5.7983 17.8326 5.93615 17.8177C5.99504 17.8108 6.05524 17.8108 6.11326 17.8186C6.35885 17.8505 6.5713 17.6821 6.60271 17.4435C6.63411 17.2044 6.46617 16.9854 6.22755 16.954C6.09755 16.937 5.96537 16.9361 5.83887 16.9505C5.58847 16.978 5.3468 17.0548 5.12084 17.1778C4.90926 17.2934 4.83118 17.5577 4.94678 17.7693C5.02617 17.915 5.1758 17.997 5.33023 17.997Z" fill="black" />
    <path d="M5.23948 21.4175C5.33371 21.4419 5.42968 21.4602 5.52477 21.4715C5.63645 21.4851 5.74812 21.492 5.86023 21.492C5.99677 21.492 6.13375 21.4824 6.27029 21.465C6.50934 21.4349 6.67904 21.2168 6.6485 20.9777C6.61796 20.7387 6.40116 20.5703 6.16123 20.5995C5.985 20.6222 5.80701 20.6274 5.63078 20.6061C5.5732 20.5986 5.51561 20.5877 5.4589 20.5733C5.22552 20.511 4.98778 20.6523 4.9267 20.8857C4.86694 21.1191 5.00653 21.3573 5.23948 21.4175Z" fill="black" />
  </g>
  <defs>
    <clipPath id="clip0_1_4038">
      <rect width="24" height="24" fill="white" transform="translate(0.880249 0.110352)" />
    </clipPath>
  </defs>
</svg>