<svg width="25" height="25" viewBox="0 0 25 25" fill="none" xmlns="http://www.w3.org/2000/svg">
  <path d="M7.50025 11.5205C8.94025 14.3505 11.2602 16.6605 14.0902 18.1105L16.2902 15.9105C16.5602 15.6405 16.9602 15.5505 17.3102 15.6705C18.4302 16.0405 19.6402 16.2405 20.8802 16.2405C21.4302 16.2405 21.8802 16.6905 21.8802 17.2405V20.7305C21.8802 21.2805 21.4302 21.7305 20.8802 21.7305C11.4902 21.7305 3.88025 14.1205 3.88025 4.73047C3.88025 4.18047 4.33025 3.73047 4.88025 3.73047H8.38025C8.93025 3.73047 9.38025 4.18047 9.38025 4.73047C9.38025 5.98047 9.58025 7.18047 9.95025 8.30047C10.0602 8.65047 9.98025 9.04047 9.70025 9.32047L7.50025 11.5205Z" fill="#64748B" />
</svg>